<svg width="70" height="92" viewBox="0 0 70 92" fill="none" xmlns="http://www.w3.org/2000/svg">
<path fill-rule="evenodd" clip-rule="evenodd" d="M2.53334 90.2538L1.9094 91.9219H0L3.59419 82.8H4.60509L8.14932 91.9219H6.23995L5.61596 90.2538H2.53334ZM4.08091 86.0578L3.13246 88.5467H5.01684L4.08091 86.0578ZM11.7186 85.315H11.8185C12.3343 85.315 12.8272 85.4236 13.2973 85.6408C13.7674 85.858 14.1398 86.1534 14.4143 86.5269L13.5158 87.4001C13.3244 87.1741 13.0644 86.9895 12.7358 86.8462C12.4071 86.7028 12.1055 86.6312 11.8309 86.6312H11.7311C11.4399 86.6398 11.207 86.7006 11.0322 86.8136C10.8575 86.9265 10.7702 87.0829 10.7702 87.2828C10.7702 87.4652 10.8471 87.5999 11.001 87.6867C11.1549 87.7736 11.4233 87.8344 11.8059 87.8691L12.2303 87.9213C13.7695 88.0342 14.539 88.7118 14.539 89.9541C14.539 90.5449 14.3103 91.0335 13.8527 91.4202C13.3951 91.8068 12.7877 92 12.0306 92H11.9682C11.3526 92 10.7743 91.8849 10.2335 91.6547C9.69271 91.4245 9.29338 91.1226 9.03541 90.749L9.93398 89.8629C10.117 90.0887 10.4041 90.2777 10.7951 90.4297C11.1862 90.5818 11.573 90.6578 11.9557 90.6578H12.0182C12.6422 90.6578 12.9541 90.445 12.9541 90.0193C12.9541 89.7761 12.8709 89.6066 12.7045 89.5111C12.5381 89.4155 12.2636 89.3503 11.8809 89.3156L11.5314 89.2765C9.9673 89.1375 9.18521 88.5077 9.18521 87.387C9.18521 86.744 9.42652 86.2403 9.90899 85.8753C10.3916 85.5105 10.9948 85.3237 11.7186 85.315V85.315ZM22.1893 91.9219H21.1285L21.0411 90.9966C20.5336 91.6655 19.8431 92 18.9695 92C18.0959 92 17.37 91.6786 16.7918 91.0357C16.2135 90.3928 15.9243 89.6023 15.9243 88.664C15.9243 87.7258 16.2135 86.933 16.7918 86.2858C17.37 85.6386 18.0959 85.315 18.9695 85.315C19.8431 85.315 20.5336 85.6538 21.0411 86.3314L21.1285 85.4062H22.1893V91.9219ZM19.1192 90.3972C19.5519 90.3972 19.9283 90.2365 20.2487 89.915C20.569 89.5936 20.7292 89.1766 20.7292 88.664C20.7292 88.1515 20.569 87.7323 20.2487 87.4065C19.9283 87.0807 19.5519 86.9178 19.1192 86.9178C18.6866 86.9178 18.3101 87.0807 17.9898 87.4065C17.6695 87.7323 17.5093 88.1515 17.5093 88.664C17.5093 89.1766 17.6674 89.5936 17.9836 89.915C18.2997 90.2365 18.6783 90.3972 19.1192 90.3972V90.3972ZM28.6664 91.9219L27.5931 90.1886C27.3935 89.8673 27.2167 89.6501 27.0628 89.5371C26.9088 89.4243 26.6904 89.3678 26.4076 89.3678H25.9707V91.9219H24.3858V82.8H25.9707V87.7779H26.3576C26.6405 87.7779 26.8568 87.7214 27.0066 87.6085C27.1564 87.4955 27.331 87.2784 27.5307 86.9569L28.5041 85.4062H30.2638L28.8661 87.6085C28.5499 88.1211 28.2545 88.4381 27.98 88.5598C28.2629 88.6553 28.579 88.9811 28.9285 89.5371L30.4261 91.9219H28.6664ZM37.602 91.9219H36.5412L36.4539 90.9966C35.9464 91.6655 35.2558 92 34.3822 92C33.5086 92 32.7827 91.6786 32.2045 91.0357C31.6263 90.3928 31.3371 89.6023 31.3371 88.664C31.3371 87.7258 31.6263 86.933 32.2045 86.2858C32.7827 85.6386 33.5086 85.315 34.3822 85.315C35.2558 85.315 35.9464 85.6538 36.4539 86.3314L36.5412 85.4062H37.602V91.9219ZM34.532 90.3972C34.9646 90.3972 35.3411 90.2365 35.6614 89.915C35.9817 89.5936 36.1419 89.1766 36.1419 88.664C36.1419 88.1515 35.9817 87.7323 35.6614 87.4065C35.3411 87.0807 34.9646 86.9178 34.532 86.9178C34.0994 86.9178 33.7228 87.0807 33.4025 87.4065C33.0822 87.7323 32.9221 88.1515 32.9221 88.664C32.9221 89.1766 33.0801 89.5936 33.3963 89.915C33.7125 90.2365 34.091 90.3972 34.532 90.3972V90.3972ZM41.3211 82.8V86.0447C41.7287 85.5583 42.2779 85.315 42.9684 85.315C43.842 85.315 44.5659 85.6386 45.1399 86.2858C45.714 86.933 46.001 87.7258 46.001 88.664C46.001 89.6023 45.714 90.3928 45.1399 91.0357C44.5659 91.6786 43.842 92 42.9684 92C42.0949 92 41.4001 91.6655 40.8843 90.9966L40.7969 91.9219H39.7361V82.8H41.3211ZM43.9356 87.4065C43.6153 87.0807 43.2388 86.9178 42.8062 86.9178C42.3736 86.9178 41.9971 87.0807 41.6767 87.4065C41.3565 87.7323 41.1963 88.1515 41.1963 88.664C41.1963 89.1766 41.3565 89.5936 41.6767 89.915C41.9971 90.2365 42.3736 90.3972 42.8062 90.3972C43.2471 90.3972 43.6257 90.2365 43.9419 89.915C44.258 89.5936 44.4161 89.1766 44.4161 88.664C44.4161 88.1515 44.2559 87.7323 43.9356 87.4065V87.4065ZM53.6512 91.9219H52.5905L52.5031 90.9966C51.9956 91.6655 51.305 92 50.4314 92C49.5578 92 48.8319 91.6786 48.2537 91.0357C47.6755 90.3928 47.3863 89.6023 47.3863 88.664C47.3863 87.7258 47.6755 86.933 48.2537 86.2858C48.8319 85.6386 49.5578 85.315 50.4314 85.315C51.305 85.315 51.9956 85.6538 52.5031 86.3314L52.5905 85.4062H53.6512V91.9219ZM50.5812 90.3972C51.0138 90.3972 51.3903 90.2365 51.7107 89.915C52.0309 89.5936 52.1911 89.1766 52.1911 88.664C52.1911 88.1515 52.0309 87.7323 51.7107 87.4065C51.3903 87.0807 51.0138 86.9178 50.5812 86.9178C50.1486 86.9178 49.7721 87.0807 49.4518 87.4065C49.1314 87.7323 48.9713 88.1515 48.9713 88.664C48.9713 89.1766 49.1294 89.5936 49.4455 89.915C49.7617 90.2365 50.1403 90.3972 50.5812 90.3972V90.3972ZM59.105 85.315C59.9869 85.315 60.6608 85.5995 61.1268 86.1686C61.5926 86.7375 61.8256 87.5086 61.8256 88.4815V91.9219H60.2407V88.5859C60.2407 87.4739 59.7789 86.9178 58.8554 86.9178C58.3812 86.9178 58.015 87.0677 57.7572 87.3674C57.4993 87.6672 57.3703 88.1211 57.3703 88.7292V91.9219H55.7853V85.4062H56.8461L56.9584 86.4227C57.3911 85.6842 58.1066 85.315 59.105 85.315V85.315ZM68.2403 91.9219L67.167 90.1886C66.9674 89.8673 66.7906 89.6501 66.6367 89.5371C66.4827 89.4243 66.2643 89.3678 65.9815 89.3678H65.5446V91.9219H63.9597V82.8H65.5446V87.7779H65.9315C66.2144 87.7779 66.4307 87.7214 66.5805 87.6085C66.7302 87.4955 66.9049 87.2784 67.1047 86.9569L68.0781 85.4062H69.8377L68.44 87.6085C68.1238 88.1211 67.8285 88.4381 67.5539 88.5598C67.8368 88.6553 68.1529 88.9811 68.5024 89.5371L70 91.9219H68.2403Z" fill="white"/>
<path fill-rule="evenodd" clip-rule="evenodd" d="M11.2771 55.2771L6.90827 59.6458C4.60824 61.9458 2.29799 64.254 0 66.5551V55.2883L0.00918612 55.2771H11.2771Z" fill="white"/>
<path fill-rule="evenodd" clip-rule="evenodd" d="M50.3187 55.2771V69.92H3.37823L10.0745 63.2258L13.0604 60.2491L18.0233 55.2771H50.3187Z" fill="white"/>
<path fill-rule="evenodd" clip-rule="evenodd" d="M50.3187 23.0013V50.5069H22.8038C31.846 41.4728 41.1481 32.1688 50.3187 23.0013Z" fill="white"/>
<path fill-rule="evenodd" clip-rule="evenodd" d="M70 3.30075V69.92H55.089V18.2198C57.7793 15.5305 60.4696 12.8382 63.1508 10.1489L70 3.30075Z" fill="white"/>
<path fill-rule="evenodd" clip-rule="evenodd" d="M66.5555 0C48.5699 18.0028 31.5851 34.9957 16.0575 50.5069H4.72341L54.6395 0H66.5555Z" fill="white"/>
<path fill-rule="evenodd" clip-rule="evenodd" d="M47.931 0L0 48.5013V0H47.931Z" fill="white"/>
</svg>
